<svg width="64" height="64" viewBox="0 0 64 64" fill="none" xmlns="http://www.w3.org/2000/svg">
<path d="M32 3C15.9842 3 3 15.9842 3 32C3 45.6936 12.4942 57.1631 25.2575 60.2036C24.5972 60.0463 23.9425 59.8701 23.3 59.6693V53.025C23.3 53.025 22.2125 53.3875 20.7625 53.3875C16.7058 53.3875 15.0205 49.7681 14.6 47.95C14.3446 46.8424 13.6776 45.7928 12.9615 45.1515C12.106 44.3886 11.7056 44.3863 11.7 44.1253C11.6888 43.5777 12.4339 43.6 12.7875 43.6C14.6 43.6 15.9742 45.5285 16.6122 46.5257C18.1927 48.9873 19.8892 49.4 20.7625 49.4C21.85 49.4 22.7892 49.2372 23.4361 48.9248C23.735 46.819 24.6719 44.9429 26.2 43.6C19.3995 42.2403 14.6 38.3398 14.6 32C14.6 28.7342 15.9106 25.7327 18.0945 23.3089C17.8714 22.6765 17.5 21.3972 17.5 19.3125C17.5 17.935 17.5959 16.2441 18.225 14.6C18.225 14.6 22.3608 14.629 26.2613 18.3232C28.0616 17.7989 29.9878 17.5 32 17.5C34.0122 17.5 35.9384 17.7989 37.7387 18.3232C41.6392 14.629 45.775 14.6 45.775 14.6C46.4074 16.2441 46.5 17.935 46.5 19.3125C46.5 21.56 46.2011 22.8706 46.0182 23.4361C48.1352 25.8375 49.4 28.7922 49.4 32C49.4 38.3398 44.6005 42.2403 37.8 43.6C39.6158 45.195 40.7 47.5183 40.7 50.125V59.6693C40.0575 59.8712 39.4039 60.0463 38.7425 60.2036C51.5058 57.1631 61 45.6936 61 32C61 15.9842 48.0158 3 32 3ZM34.0222 60.9219C33.3541 60.9688 32.6804 61 32 61C32.6804 61 33.353 60.9677 34.0222 60.9219ZM32 61C31.3196 61 30.6459 60.9688 29.9778 60.9219C30.647 60.9677 31.3196 61 32 61ZM29.5328 60.8885C28.1753 60.7736 26.8436 60.5661 25.5464 60.2705C26.8447 60.565 28.1753 60.7736 29.5328 60.8885Z" fill="white"/>
</svg>
